<svg width="136" height="24" viewBox="0 0 136 24" fill="none" xmlns="http://www.w3.org/2000/svg">
<g clip-path="url(#clip0_102_803)">
<path d="M8.24301 7.33992L1.86301 8.26492L1.75001 8.28792C1.57895 8.33333 1.42301 8.42333 1.2981 8.54872C1.1732 8.67412 1.08381 8.83041 1.03907 9.00165C0.994331 9.17289 0.995837 9.35293 1.04344 9.5234C1.09104 9.69386 1.18303 9.84864 1.31001 9.97192L5.93201 14.4709L4.84201 20.8259L4.82901 20.9359C4.81854 21.1128 4.85528 21.2894 4.93546 21.4474C5.01564 21.6055 5.13639 21.7394 5.28535 21.8354C5.4343 21.9315 5.6061 21.9862 5.78316 21.994C5.96022 22.0018 6.13618 21.9625 6.29301 21.8799L11.999 18.8799L17.692 21.8799L17.792 21.9259C17.9571 21.9909 18.1365 22.0109 18.3118 21.9837C18.4871 21.9565 18.652 21.8832 18.7896 21.7712C18.9272 21.6592 19.0326 21.5127 19.0948 21.3466C19.1571 21.1804 19.1741 21.0008 19.144 20.8259L18.053 14.4709L22.677 9.97092L22.755 9.88592C22.8664 9.74869 22.9395 9.58438 22.9667 9.40972C22.994 9.23506 22.9744 9.0563 22.9101 8.89165C22.8458 8.72701 22.7389 8.58235 22.6005 8.47244C22.4621 8.36252 22.297 8.29126 22.122 8.26592L15.742 7.33992L12.89 1.55992C12.8075 1.39246 12.6797 1.25144 12.5212 1.15283C12.3627 1.05422 12.1797 1.00195 11.993 1.00195C11.8063 1.00195 11.6234 1.05422 11.4648 1.15283C11.3063 1.25144 11.1785 1.39246 11.096 1.55992L8.24301 7.33992Z" fill="#FFEDA3"/>
</g>
<g clip-path="url(#clip1_102_803)">
<path d="M36.243 7.33992L29.863 8.26492L29.75 8.28792C29.5789 8.33333 29.423 8.42333 29.2981 8.54872C29.1732 8.67412 29.0838 8.83041 29.0391 9.00165C28.9943 9.17289 28.9958 9.35293 29.0434 9.5234C29.091 9.69386 29.183 9.84864 29.31 9.97192L33.932 14.4709L32.842 20.8259L32.829 20.9359C32.8185 21.1128 32.8553 21.2894 32.9355 21.4474C33.0156 21.6055 33.1364 21.7394 33.2853 21.8354C33.4343 21.9315 33.6061 21.9862 33.7832 21.994C33.9602 22.0018 34.1362 21.9625 34.293 21.8799L39.999 18.8799L45.692 21.8799L45.792 21.9259C45.9571 21.9909 46.1365 22.0109 46.3118 21.9837C46.4871 21.9565 46.652 21.8832 46.7896 21.7712C46.9272 21.6592 47.0326 21.5127 47.0948 21.3466C47.1571 21.1804 47.1741 21.0008 47.144 20.8259L46.053 14.4709L50.677 9.97092L50.755 9.88592C50.8664 9.74869 50.9395 9.58438 50.9667 9.40972C50.994 9.23506 50.9744 9.0563 50.9101 8.89165C50.8458 8.72701 50.7389 8.58235 50.6005 8.47244C50.4621 8.36252 50.297 8.29126 50.122 8.26592L43.742 7.33992L40.89 1.55992C40.8075 1.39246 40.6797 1.25144 40.5212 1.15283C40.3627 1.05422 40.1797 1.00195 39.993 1.00195C39.8063 1.00195 39.6233 1.05422 39.4648 1.15283C39.3063 1.25144 39.1785 1.39246 39.096 1.55992L36.243 7.33992Z" fill="#FFEDA3"/>
</g>
<g clip-path="url(#clip2_102_803)">
<path d="M64.243 7.33992L57.863 8.26492L57.75 8.28792C57.5789 8.33333 57.423 8.42333 57.2981 8.54872C57.1732 8.67412 57.0838 8.83041 57.0391 9.00165C56.9943 9.17289 56.9958 9.35293 57.0434 9.5234C57.091 9.69386 57.183 9.84864 57.31 9.97192L61.932 14.4709L60.842 20.8259L60.829 20.9359C60.8185 21.1128 60.8553 21.2894 60.9355 21.4474C61.0156 21.6055 61.1364 21.7394 61.2853 21.8354C61.4343 21.9315 61.6061 21.9862 61.7832 21.994C61.9602 22.0018 62.1362 21.9625 62.293 21.8799L67.999 18.8799L73.692 21.8799L73.792 21.9259C73.9571 21.9909 74.1365 22.0109 74.3118 21.9837C74.4871 21.9565 74.652 21.8832 74.7896 21.7712C74.9272 21.6592 75.0326 21.5127 75.0948 21.3466C75.1571 21.1804 75.1741 21.0008 75.144 20.8259L74.053 14.4709L78.677 9.97092L78.755 9.88592C78.8664 9.74869 78.9395 9.58438 78.9667 9.40972C78.994 9.23506 78.9744 9.0563 78.9101 8.89165C78.8458 8.72701 78.7389 8.58235 78.6005 8.47244C78.4621 8.36252 78.297 8.29126 78.122 8.26592L71.742 7.33992L68.89 1.55992C68.8075 1.39246 68.6797 1.25144 68.5212 1.15283C68.3627 1.05422 68.1797 1.00195 67.993 1.00195C67.8063 1.00195 67.6234 1.05422 67.4648 1.15283C67.3063 1.25144 67.1785 1.39246 67.096 1.55992L64.243 7.33992Z" fill="#FFEDA3"/>
</g>
<g clip-path="url(#clip3_102_803)">
<path d="M92.243 7.33992L85.863 8.26492L85.75 8.28792C85.5789 8.33333 85.423 8.42333 85.2981 8.54872C85.1732 8.67412 85.0838 8.83041 85.0391 9.00165C84.9943 9.17289 84.9958 9.35293 85.0434 9.5234C85.091 9.69386 85.183 9.84864 85.31 9.97192L89.932 14.4709L88.842 20.8259L88.829 20.9359C88.8185 21.1128 88.8553 21.2894 88.9355 21.4474C89.0156 21.6055 89.1364 21.7394 89.2853 21.8354C89.4343 21.9315 89.6061 21.9862 89.7832 21.994C89.9602 22.0018 90.1362 21.9625 90.293 21.8799L95.999 18.8799L101.692 21.8799L101.792 21.9259C101.957 21.9909 102.136 22.0109 102.312 21.9837C102.487 21.9565 102.652 21.8832 102.79 21.7712C102.927 21.6592 103.033 21.5127 103.095 21.3466C103.157 21.1804 103.174 21.0008 103.144 20.8259L102.053 14.4709L106.677 9.97092L106.755 9.88592C106.866 9.74869 106.939 9.58438 106.967 9.40972C106.994 9.23506 106.974 9.0563 106.91 8.89165C106.846 8.72701 106.739 8.58235 106.6 8.47244C106.462 8.36252 106.297 8.29126 106.122 8.26592L99.742 7.33992L96.89 1.55992C96.8075 1.39246 96.6797 1.25144 96.5212 1.15283C96.3627 1.05422 96.1797 1.00195 95.993 1.00195C95.8063 1.00195 95.6234 1.05422 95.4648 1.15283C95.3063 1.25144 95.1785 1.39246 95.096 1.55992L92.243 7.33992Z" fill="#FFEDA3"/>
</g>
<g clip-path="url(#clip4_102_803)">
<path d="M120.243 7.33992L113.863 8.26492L113.75 8.28792C113.579 8.33333 113.423 8.42333 113.298 8.54872C113.173 8.67412 113.084 8.83041 113.039 9.00165C112.994 9.17289 112.996 9.35293 113.043 9.5234C113.091 9.69386 113.183 9.84864 113.31 9.97192L117.932 14.4709L116.842 20.8259L116.829 20.9359C116.819 21.1128 116.855 21.2894 116.935 21.4474C117.016 21.6055 117.136 21.7394 117.285 21.8354C117.434 21.9315 117.606 21.9862 117.783 21.994C117.96 22.0018 118.136 21.9625 118.293 21.8799L123.999 18.8799L129.692 21.8799L129.792 21.9259C129.957 21.9909 130.136 22.0109 130.312 21.9837C130.487 21.9565 130.652 21.8832 130.79 21.7712C130.927 21.6592 131.033 21.5127 131.095 21.3466C131.157 21.1804 131.174 21.0008 131.144 20.8259L130.053 14.4709L134.677 9.97092L134.755 9.88592C134.866 9.74869 134.939 9.58438 134.967 9.40972C134.994 9.23506 134.974 9.0563 134.91 8.89165C134.846 8.72701 134.739 8.58235 134.6 8.47244C134.462 8.36252 134.297 8.29126 134.122 8.26592L127.742 7.33992L124.89 1.55992C124.807 1.39246 124.68 1.25144 124.521 1.15283C124.363 1.05422 124.18 1.00195 123.993 1.00195C123.806 1.00195 123.623 1.05422 123.465 1.15283C123.306 1.25144 123.179 1.39246 123.096 1.55992L120.243 7.33992Z" fill="#FFEDA3"/>
</g>
<defs>
<clipPath id="clip0_102_803">
<rect width="24" height="24" fill="white"/>
</clipPath>
<clipPath id="clip1_102_803">
<rect width="24" height="24" fill="white" transform="translate(28)"/>
</clipPath>
<clipPath id="clip2_102_803">
<rect width="24" height="24" fill="white" transform="translate(56)"/>
</clipPath>
<clipPath id="clip3_102_803">
<rect width="24" height="24" fill="white" transform="translate(84)"/>
</clipPath>
<clipPath id="clip4_102_803">
<rect width="24" height="24" fill="white" transform="translate(112)"/>
</clipPath>
</defs>
</svg>
